<svg width="26" height="26" viewBox="0 0 26 26" fill="none" xmlns="http://www.w3.org/2000/svg">
<g clip-path="url(#clip0_406_3834)">
<path d="M24.9417 21.9595L20.0735 17.0914C19.8538 16.8716 19.5559 16.7496 19.2434 16.7496H18.4475C19.7952 15.0259 20.5959 12.858 20.5959 10.4996C20.5959 4.88922 16.05 0.343323 10.4397 0.343323C4.82935 0.343323 0.283447 4.88922 0.283447 10.4996C0.283447 16.1099 4.82935 20.6558 10.4397 20.6558C12.7981 20.6558 14.9661 19.855 16.6897 18.5074V19.3033C16.6897 19.6158 16.8118 19.9136 17.0315 20.1334L21.8997 25.0015C22.3586 25.4605 23.1008 25.4605 23.5549 25.0015L24.9368 23.6197C25.3958 23.1607 25.3958 22.4185 24.9417 21.9595ZM10.4397 16.7496C6.98755 16.7496 4.1897 13.9566 4.1897 10.4996C4.1897 7.04742 6.98267 4.24957 10.4397 4.24957C13.8918 4.24957 16.6897 7.04254 16.6897 10.4996C16.6897 13.9517 13.8967 16.7496 10.4397 16.7496Z" fill="#646669"/>
</g>
<defs>
<clipPath id="clip0_406_3834">
<rect width="25" height="25" fill="white" transform="translate(0.283447 0.343323)"/>
</clipPath>
</defs>
</svg>
